<svg xmlns="http://www.w3.org/2000/svg" xmlns:xlink="http://www.w3.org/1999/xlink" width="20" height="16" version="1.1" viewBox="0 0 20 16"><title>ic_social_twitter</title><desc>Created with Sketch.</desc><g id="Assets" fill="none" fill-rule="evenodd" stroke="none" stroke-width="1"><g id="mobile" fill="#FFF" transform="translate(-1029.000000, -176.000000)"><g id="ic_social_twitter" transform="translate(1029.000000, 176.000000)"><path id="Twitter" d="M18.6703406,0.29579315 C17.9085579,0.758194226 17.0668034,1.09448592 16.1671206,1.27442248 C15.4504502,0.490083624 14.4261959,0 13.2922367,0 C11.1186441,0 9.3546506,1.80859312 9.3546506,4.03908878 C9.3546506,4.35590016 9.38848483,4.66297139 9.45615328,4.95876454 C6.18243568,4.79010605 3.28038192,3.18400564 1.33645189,0.737175996 C0.997084361,1.33593925 0.803306527,2.03056615 0.803306527,2.77030534 C0.803306527,4.1708372 1.49844606,5.40732434 2.55602192,6.13168434 C1.91112108,6.11220403 1.30261767,5.92867899 0.770497581,5.62827208 L0.770497581,5.6774855 C0.770497581,7.6352568 2.12848034,9.26852712 3.93194707,9.6381404 C3.60180706,9.73297876 3.25321201,9.78065426 2.89385153,9.78065426 C2.64009484,9.78065426 2.39248983,9.75604755 2.15257441,9.70888469 C2.65393611,11.3129345 4.10778251,12.4812406 5.83179007,12.5125116 C4.48406011,13.5962321 2.78465925,14.2421582 0.939668707,14.2421582 C0.621832046,14.2421582 0.307583865,14.2237032 0,14.1867931 C1.74297523,15.3310051 3.81455256,16 6.0383839,16 C13.2845471,16 17.2457147,9.84627215 17.2457147,4.50815418 C17.2457147,4.33231873 17.2426388,4.15699593 17.2359745,3.98474897 C18.0054468,3.41520618 18.6739291,2.70417481 19.1998975,1.89420397 C18.4945051,2.21511647 17.734773,2.43247573 16.9381308,2.52987729 C17.7516901,2.03056615 18.3760854,1.23905033 18.6703406,0.29579315"/></g></g></g></svg>