<svg xmlns="http://www.w3.org/2000/svg" xmlns:xlink="http://www.w3.org/1999/xlink" width="16" height="16" version="1.1" viewBox="0 0 16 16"><title>ic_weblink</title><desc>Created with Sketch.</desc><g id="Assets" fill="none" fill-rule="evenodd" stroke="none" stroke-width="1"><g id="mobile" fill="#FFF" transform="translate(-992.000000, -176.000000)"><g id="ic_weblink" transform="translate(992.000000, 176.000000)"><path id="Shape" d="M8,0 C3.59111111,0 0,3.59111111 0,8 C0,12.4088889 3.59111111,16 8,16 C12.4088889,16 16,12.4088889 16,8 C16,3.59111111 12.4088889,0 8,0 L8,0 Z M1.84888889,8.88888889 L3.59111111,8.88888889 C3.69777778,10.5244444 4.01777778,12.0177778 4.58666667,13.1911111 C3.12888889,12.2311111 2.09777778,10.6666667 1.84888889,8.88888889 L1.84888889,8.88888889 Z M3.59111111,7.11111111 L1.84888889,7.11111111 C2.09777778,5.33333333 3.12888889,3.76888889 4.55111111,2.80888889 C4.01777778,3.98222222 3.66222222,5.47555556 3.59111111,7.11111111 L3.59111111,7.11111111 Z M7.11111111,13.7955556 C6.25777778,13.0133333 5.51111111,11.2 5.36888889,8.88888889 L7.11111111,8.88888889 L7.11111111,13.7955556 L7.11111111,13.7955556 Z M7.11111111,7.11111111 L5.36888889,7.11111111 C5.51111111,4.8 6.25777778,2.98666667 7.11111111,2.20444444 L7.11111111,7.11111111 L7.11111111,7.11111111 Z M8.88888889,13.7955556 L8.88888889,8.88888889 L10.6311111,8.88888889 C10.4888889,11.2 9.74222222,13.0133333 8.88888889,13.7955556 L8.88888889,13.7955556 Z M8.88888889,7.11111111 L8.88888889,2.20444444 C9.74222222,2.98666667 10.4888889,4.8 10.6311111,7.11111111 L8.88888889,7.11111111 L8.88888889,7.11111111 Z M11.4488889,13.1911111 C11.9822222,12.0177778 12.3377778,10.56 12.4444444,8.88888889 L14.1866667,8.88888889 C13.9022222,10.6666667 12.8711111,12.2311111 11.4488889,13.1911111 L11.4488889,13.1911111 Z M12.4088889,7.11111111 C12.3022222,5.47555556 11.9822222,3.98222222 11.4133333,2.80888889 C12.8711111,3.76888889 13.8666667,5.29777778 14.1155556,7.11111111 L12.4088889,7.11111111 L12.4088889,7.11111111 Z"/></g></g></g></svg>